<svg width="24" height="24" viewBox="0 0 24 24" fill="none" xmlns="http://www.w3.org/2000/svg">
<path d="M2 7.5V5C2 4.46957 2.21071 3.96086 2.58579 3.58579C2.96086 3.21072 3.46957 3 4 3H7.9C8.23449 2.99673 8.56445 3.07739 8.8597 3.23462C9.15495 3.39186 9.40604 3.62063 9.59 3.9L10.4 5.1C10.5821 5.37653 10.83 5.60353 11.1215 5.76061C11.413 5.91769 11.7389 5.99995 12.07 6H20C20.5304 6 21.0391 6.21072 21.4142 6.58579C21.7893 6.96086 22 7.46957 22 8V18C22 18.5304 21.7893 19.0391 21.4142 19.4142C21.0391 19.7893 20.5304 20 20 20H4C3.54582 20.0144 3.10028 19.8737 2.73675 19.601C2.37322 19.3284 2.11338 18.94 2 18.5" stroke="white" stroke-opacity="0.7" stroke-width="2" stroke-linecap="round" stroke-linejoin="round"/>
<path d="M2 13H12" stroke="white" stroke-opacity="0.7" stroke-width="2" stroke-linecap="round" stroke-linejoin="round"/>
<path d="M5 10L2 13L5 16" stroke="white" stroke-opacity="0.7" stroke-width="2" stroke-linecap="round" stroke-linejoin="round"/>
</svg>
