<?xml version="1.0" encoding="iso-8859-1"?>
<!-- Generator: Adobe Illustrator 16.0.0, SVG Export Plug-In . SVG Version: 6.00 Build 0)  -->
<!DOCTYPE svg PUBLIC "-//W3C//DTD SVG 1.1//EN" "http://www.w3.org/Graphics/SVG/1.1/DTD/svg11.dtd">
<svg version="1.1" id="Capa_1" xmlns="http://www.w3.org/2000/svg" xmlns:xlink="http://www.w3.org/1999/xlink" x="0px" y="0px"
	 width="66.137px" height="66.137px" viewBox="0 0 66.137 66.137" style="enable-background:new 0 0 66.137 66.137;"
	 xml:space="preserve">
<g>
	<path d="M33.068,0.001C14.834,0.001,0,14.835,0,33.069c0,18.233,14.834,33.067,33.068,33.067s33.069-14.834,33.069-33.067
		C66.137,14.835,51.302,0.001,33.068,0.001z M33.068,62.136C17.04,62.136,4,49.099,4,33.069C4,17.041,17.04,4.001,33.068,4.001
		s29.069,13.041,29.069,29.068S49.096,62.136,33.068,62.136z M42.521,24.213l2.828,2.829l-15.08,15.08l-0.207-0.206l-0.026,0.024
		l-9.454-9.454l2.828-2.828l6.833,6.832L42.521,24.213z"/>
</g>
<g>
</g>
<g>
</g>
<g>
</g>
<g>
</g>
<g>
</g>
<g>
</g>
<g>
</g>
<g>
</g>
<g>
</g>
<g>
</g>
<g>
</g>
<g>
</g>
<g>
</g>
<g>
</g>
<g>
</g>
</svg>
